<svg width="368" height="366" viewBox="0 0 368 366" fill="none" xmlns="http://www.w3.org/2000/svg">
<path fill-rule="evenodd" clip-rule="evenodd" d="M323.939 250.676C316.326 284.712 280.133 305.836 247.594 318.45C217.738 330.024 185.801 319.034 153.854 316.613C120.319 314.073 78.1279 329.485 56.242 303.953C33.8706 277.855 59.93 237.658 56.8503 203.451C54.2992 175.115 30.2777 148.709 39.8541 121.929C49.5718 94.7534 81.974 85.5292 105.166 68.3363C132.561 48.028 153.649 13.6601 187.751 12.2906C222.747 10.8852 258.394 32.2219 277.752 61.4055C295.848 88.6877 275.956 125.173 283.713 156.963C291.972 190.808 331.54 216.694 323.939 250.676Z" fill="#3CAD6E"/>
<g filter="url(#filter0_d_1221_581)">
<g clip-path="url(#clip0_1221_581)">
<g filter="url(#filter1_d_1221_581)">
<rect x="44" y="94" width="280" height="178" rx="14" fill="white"/>
</g>
<circle cx="58" cy="108" r="2" fill="#359962" fill-opacity="0.25"/>
<circle cx="63" cy="108" r="2" fill="#359962" fill-opacity="0.25"/>
<circle cx="68" cy="108" r="2" fill="#359962" fill-opacity="0.25"/>
<rect x="87" y="103" width="193" height="10" rx="5" fill="#359962" fill-opacity="0.25"/>
<rect x="87" y="146" width="60" height="42" rx="6" fill="#2EA7E0" fill-opacity="0.25"/>
<g filter="url(#filter2_d_1221_581)">
<path d="M87 205C87 201.686 89.6863 199 93 199H274C277.314 199 280 201.686 280 205V272H87V205Z" fill="white"/>
</g>
<rect x="154" y="146" width="60" height="42" rx="6" fill="#359962" fill-opacity="0.25"/>
<rect x="220" y="146" width="60" height="42" rx="6" fill="#2EA7E0" fill-opacity="0.25"/>
<g clip-path="url(#clip1_1221_581)">
<path d="M306 103C303.794 103 302 104.744 302 106.889C302 107.615 302.207 108.321 302.6 108.931L305.729 113.909C305.752 113.946 305.78 113.976 305.813 114L305.804 111.629C305.807 111.518 305.793 111.005 305.793 111.005C305.78 110.35 305.522 109.978 305.455 109.893C305.445 109.879 305.44 109.863 305.44 109.847V109.777C305.44 109.762 305.444 109.748 305.452 109.736C305.632 109.767 305.817 109.783 306.006 109.783C306.197 109.783 306.385 109.767 306.567 109.735C306.576 109.747 306.581 109.761 306.581 109.777V109.847C306.581 109.863 306.576 109.879 306.565 109.893C306.499 109.978 306.241 110.349 306.228 111.005C306.228 111.005 306.213 111.518 306.217 111.629L306.208 113.998C306.242 113.973 306.272 113.941 306.295 113.902L309.433 108.879C309.806 108.282 309.999 107.589 309.999 106.889C310 104.744 308.206 103 306 103ZM305.996 109.297C304.59 109.297 303.449 108.189 303.449 106.821C303.449 105.454 304.59 104.345 305.996 104.345C307.402 104.345 308.543 105.454 308.543 106.821C308.543 108.189 307.402 109.297 305.996 109.297Z" fill="#66BFE6"/>
</g>
<path d="M87.83 126H91.01C91.77 126 92.44 126.147 93.02 126.44C93.6067 126.727 94.06 127.133 94.38 127.66C94.7067 128.187 94.87 128.8 94.87 129.5C94.87 130.2 94.7067 130.813 94.38 131.34C94.06 131.867 93.6067 132.277 93.02 132.57C92.44 132.857 91.77 133 91.01 133H87.83V126ZM90.93 131.67C91.63 131.67 92.1867 131.477 92.6 131.09C93.02 130.697 93.23 130.167 93.23 129.5C93.23 128.833 93.02 128.307 92.6 127.92C92.1867 127.527 91.63 127.33 90.93 127.33H89.45V131.67H90.93ZM98.1517 127.54C98.9851 127.54 99.6251 127.74 100.072 128.14C100.518 128.533 100.742 129.13 100.742 129.93V133H99.2817V132.33C98.9884 132.83 98.4417 133.08 97.6417 133.08C97.2284 133.08 96.8684 133.01 96.5617 132.87C96.2617 132.73 96.0317 132.537 95.8717 132.29C95.7117 132.043 95.6317 131.763 95.6317 131.45C95.6317 130.95 95.8184 130.557 96.1917 130.27C96.5717 129.983 97.1551 129.84 97.9417 129.84H99.1817C99.1817 129.5 99.0784 129.24 98.8717 129.06C98.6651 128.873 98.3551 128.78 97.9417 128.78C97.6551 128.78 97.3717 128.827 97.0917 128.92C96.8184 129.007 96.5851 129.127 96.3917 129.28L95.8317 128.19C96.1251 127.983 96.4751 127.823 96.8817 127.71C97.2951 127.597 97.7184 127.54 98.1517 127.54ZM98.0317 132.03C98.2984 132.03 98.5351 131.97 98.7417 131.85C98.9484 131.723 99.0951 131.54 99.1817 131.3V130.75H98.1117C97.4717 130.75 97.1517 130.96 97.1517 131.38C97.1517 131.58 97.2284 131.74 97.3817 131.86C97.5417 131.973 97.7584 132.03 98.0317 132.03ZM103.964 133.08C103.517 133.08 103.08 133.027 102.654 132.92C102.227 132.807 101.887 132.667 101.634 132.5L102.154 131.38C102.394 131.533 102.684 131.66 103.024 131.76C103.364 131.853 103.697 131.9 104.024 131.9C104.684 131.9 105.014 131.737 105.014 131.41C105.014 131.257 104.924 131.147 104.744 131.08C104.564 131.013 104.287 130.957 103.914 130.91C103.474 130.843 103.11 130.767 102.824 130.68C102.537 130.593 102.287 130.44 102.074 130.22C101.867 130 101.764 129.687 101.764 129.28C101.764 128.94 101.86 128.64 102.054 128.38C102.254 128.113 102.54 127.907 102.914 127.76C103.294 127.613 103.74 127.54 104.254 127.54C104.634 127.54 105.01 127.583 105.384 127.67C105.764 127.75 106.077 127.863 106.324 128.01L105.804 129.12C105.33 128.853 104.814 128.72 104.254 128.72C103.92 128.72 103.67 128.767 103.504 128.86C103.337 128.953 103.254 129.073 103.254 129.22C103.254 129.387 103.344 129.503 103.524 129.57C103.704 129.637 103.99 129.7 104.384 129.76C104.824 129.833 105.184 129.913 105.464 130C105.744 130.08 105.987 130.23 106.194 130.45C106.4 130.67 106.504 130.977 106.504 131.37C106.504 131.703 106.404 132 106.204 132.26C106.004 132.52 105.71 132.723 105.324 132.87C104.944 133.01 104.49 133.08 103.964 133.08ZM110.736 127.54C111.403 127.54 111.939 127.74 112.346 128.14C112.759 128.54 112.966 129.133 112.966 129.92V133H111.406V130.16C111.406 129.733 111.313 129.417 111.126 129.21C110.939 128.997 110.669 128.89 110.316 128.89C109.923 128.89 109.609 129.013 109.376 129.26C109.143 129.5 109.026 129.86 109.026 130.34V133H107.466V125.58H109.026V128.18C109.233 127.973 109.483 127.817 109.776 127.71C110.069 127.597 110.389 127.54 110.736 127.54ZM117.56 127.54C118.06 127.54 118.513 127.657 118.92 127.89C119.333 128.117 119.657 128.44 119.89 128.86C120.123 129.273 120.24 129.757 120.24 130.31C120.24 130.863 120.123 131.35 119.89 131.77C119.657 132.183 119.333 132.507 118.92 132.74C118.513 132.967 118.06 133.08 117.56 133.08C116.82 133.08 116.257 132.847 115.87 132.38V133H114.38V125.58H115.94V128.19C116.333 127.757 116.873 127.54 117.56 127.54ZM117.29 131.8C117.69 131.8 118.017 131.667 118.27 131.4C118.53 131.127 118.66 130.763 118.66 130.31C118.66 129.857 118.53 129.497 118.27 129.23C118.017 128.957 117.69 128.82 117.29 128.82C116.89 128.82 116.56 128.957 116.3 129.23C116.047 129.497 115.92 129.857 115.92 130.31C115.92 130.763 116.047 131.127 116.3 131.4C116.56 131.667 116.89 131.8 117.29 131.8ZM123.844 133.08C123.278 133.08 122.768 132.963 122.314 132.73C121.868 132.49 121.518 132.16 121.264 131.74C121.011 131.32 120.884 130.843 120.884 130.31C120.884 129.777 121.011 129.3 121.264 128.88C121.518 128.46 121.868 128.133 122.314 127.9C122.768 127.66 123.278 127.54 123.844 127.54C124.411 127.54 124.918 127.66 125.364 127.9C125.811 128.133 126.161 128.46 126.414 128.88C126.668 129.3 126.794 129.777 126.794 130.31C126.794 130.843 126.668 131.32 126.414 131.74C126.161 132.16 125.811 132.49 125.364 132.73C124.918 132.963 124.411 133.08 123.844 133.08ZM123.844 131.8C124.244 131.8 124.571 131.667 124.824 131.4C125.084 131.127 125.214 130.763 125.214 130.31C125.214 129.857 125.084 129.497 124.824 129.23C124.571 128.957 124.244 128.82 123.844 128.82C123.444 128.82 123.114 128.957 122.854 129.23C122.594 129.497 122.464 129.857 122.464 130.31C122.464 130.763 122.594 131.127 122.854 131.4C123.114 131.667 123.444 131.8 123.844 131.8ZM129.919 127.54C130.753 127.54 131.393 127.74 131.839 128.14C132.286 128.533 132.509 129.13 132.509 129.93V133H131.049V132.33C130.756 132.83 130.209 133.08 129.409 133.08C128.996 133.08 128.636 133.01 128.329 132.87C128.029 132.73 127.799 132.537 127.639 132.29C127.479 132.043 127.399 131.763 127.399 131.45C127.399 130.95 127.586 130.557 127.959 130.27C128.339 129.983 128.923 129.84 129.709 129.84H130.949C130.949 129.5 130.846 129.24 130.639 129.06C130.433 128.873 130.123 128.78 129.709 128.78C129.423 128.78 129.139 128.827 128.859 128.92C128.586 129.007 128.353 129.127 128.159 129.28L127.599 128.19C127.893 127.983 128.243 127.823 128.649 127.71C129.063 127.597 129.486 127.54 129.919 127.54ZM129.799 132.03C130.066 132.03 130.303 131.97 130.509 131.85C130.716 131.723 130.863 131.54 130.949 131.3V130.75H129.879C129.239 130.75 128.919 130.96 128.919 131.38C128.919 131.58 128.996 131.74 129.149 131.86C129.309 131.973 129.526 132.03 129.799 132.03ZM135.411 128.33C135.598 128.07 135.848 127.873 136.161 127.74C136.481 127.607 136.848 127.54 137.261 127.54V128.98C137.088 128.967 136.971 128.96 136.911 128.96C136.465 128.96 136.115 129.087 135.861 129.34C135.608 129.587 135.481 129.96 135.481 130.46V133H133.921V127.62H135.411V128.33ZM143.62 125.58V133H142.13V132.38C141.743 132.847 141.183 133.08 140.45 133.08C139.943 133.08 139.483 132.967 139.07 132.74C138.663 132.513 138.343 132.19 138.11 131.77C137.877 131.35 137.76 130.863 137.76 130.31C137.76 129.757 137.877 129.27 138.11 128.85C138.343 128.43 138.663 128.107 139.07 127.88C139.483 127.653 139.943 127.54 140.45 127.54C141.137 127.54 141.673 127.757 142.06 128.19V125.58H143.62ZM140.72 131.8C141.113 131.8 141.44 131.667 141.7 131.4C141.96 131.127 142.09 130.763 142.09 130.31C142.09 129.857 141.96 129.497 141.7 129.23C141.44 128.957 141.113 128.82 140.72 128.82C140.32 128.82 139.99 128.957 139.73 129.23C139.47 129.497 139.34 129.857 139.34 130.31C139.34 130.763 139.47 131.127 139.73 131.4C139.99 131.667 140.32 131.8 140.72 131.8Z" fill="#203036"/>
<path fill-rule="evenodd" clip-rule="evenodd" d="M140.734 210.4C149.603 212.113 156.259 218.636 162.797 224.791C168.489 230.151 173.324 236.146 175.878 243.489C178.469 250.933 180.634 259.33 177.302 266.481C174.077 273.405 164.854 274.605 159.044 279.625C152.316 285.438 149.259 295.41 140.734 298.077C131.129 301.082 119.065 301.039 111.466 294.509C103.911 288.018 104.452 276.405 104.018 266.529C103.681 258.86 108.195 252.272 109.275 244.67C110.712 234.559 104.413 222.427 111.359 214.86C118.177 207.433 130.768 208.476 140.734 210.4Z" fill="#2EA7E0" fill-opacity="0.25"/>
<g filter="url(#filter3_d_1221_581)">
<rect x="210" y="199" width="70" height="81" rx="6" fill="#C3C3C3" fill-opacity="0.25" shape-rendering="crispEdges"/>
</g>
<g filter="url(#filter4_d_1221_581)">
<path d="M293 262.483V294H166.643V268.93L231.135 208.045C237.983 201.519 242.601 195.948 244.989 191.331C247.378 186.556 248.572 181.86 248.572 177.244C248.572 170.559 246.263 165.465 241.645 161.963C237.187 158.302 230.578 156.472 221.82 156.472C214.495 156.472 207.887 157.904 201.995 160.77C196.103 163.476 191.166 167.614 187.185 173.185L159 155.039C165.529 145.33 174.526 137.769 185.991 132.357C197.456 126.786 210.594 124 225.403 124C237.824 124 248.652 126.069 257.888 130.208C267.283 134.187 274.528 139.918 279.624 147.399C284.879 154.721 287.506 163.396 287.506 173.424C287.506 182.497 285.595 191.013 281.774 198.972C277.952 206.931 270.547 216.004 259.56 226.191L221.103 262.483H293Z" fill="#3CAD6E"/>
<path d="M295.5 262.483V259.983H293H227.395L261.259 228.024C261.262 228.022 261.265 228.019 261.267 228.017C272.343 217.747 280.008 208.424 284.027 200.054C288.016 191.748 290.006 182.861 290.006 173.424C290.006 162.946 287.255 153.755 281.673 145.966C276.279 138.058 268.644 132.053 258.886 127.916C249.27 123.611 238.087 121.5 225.403 121.5C210.282 121.5 196.765 124.345 184.911 130.102C173.079 135.689 163.724 143.533 156.925 153.644L155.502 155.761L157.647 157.141L185.832 175.287L187.835 176.577L189.219 174.639C192.962 169.402 197.565 165.555 203.038 163.042L203.063 163.03L203.088 163.018C208.601 160.337 214.829 158.972 221.82 158.972C230.286 158.972 236.228 160.75 240.059 163.896L240.096 163.926L240.135 163.955C244.028 166.908 246.072 171.205 246.072 177.244C246.072 181.411 244.998 185.721 242.761 190.198C240.562 194.439 236.188 199.775 229.416 206.23C229.414 206.232 229.412 206.234 229.411 206.235L164.927 267.112L164.143 267.852V268.93V294V296.5H166.643H293H295.5V294V262.483Z" stroke="white" stroke-width="5"/>
</g>
</g>
</g>
<defs>
<filter id="filter0_d_1221_581" x="4" y="54" width="360" height="258" filterUnits="userSpaceOnUse" color-interpolation-filters="sRGB">
<feFlood flood-opacity="0" result="BackgroundImageFix"/>
<feColorMatrix in="SourceAlpha" type="matrix" values="0 0 0 0 0 0 0 0 0 0 0 0 0 0 0 0 0 0 127 0" result="hardAlpha"/>
<feOffset/>
<feGaussianBlur stdDeviation="20"/>
<feComposite in2="hardAlpha" operator="out"/>
<feColorMatrix type="matrix" values="0 0 0 0 0.764706 0 0 0 0 0.764706 0 0 0 0 0.764706 0 0 0 0.5 0"/>
<feBlend mode="multiply" in2="BackgroundImageFix" result="effect1_dropShadow_1221_581"/>
<feBlend mode="normal" in="SourceGraphic" in2="effect1_dropShadow_1221_581" result="shape"/>
</filter>
<filter id="filter1_d_1221_581" x="4" y="54" width="360" height="258" filterUnits="userSpaceOnUse" color-interpolation-filters="sRGB">
<feFlood flood-opacity="0" result="BackgroundImageFix"/>
<feColorMatrix in="SourceAlpha" type="matrix" values="0 0 0 0 0 0 0 0 0 0 0 0 0 0 0 0 0 0 127 0" result="hardAlpha"/>
<feOffset/>
<feGaussianBlur stdDeviation="20"/>
<feComposite in2="hardAlpha" operator="out"/>
<feColorMatrix type="matrix" values="0 0 0 0 0.764706 0 0 0 0 0.764706 0 0 0 0 0.764706 0 0 0 0.5 0"/>
<feBlend mode="multiply" in2="BackgroundImageFix" result="effect1_dropShadow_1221_581"/>
<feBlend mode="normal" in="SourceGraphic" in2="effect1_dropShadow_1221_581" result="shape"/>
</filter>
<filter id="filter2_d_1221_581" x="47" y="163" width="273" height="153" filterUnits="userSpaceOnUse" color-interpolation-filters="sRGB">
<feFlood flood-opacity="0" result="BackgroundImageFix"/>
<feColorMatrix in="SourceAlpha" type="matrix" values="0 0 0 0 0 0 0 0 0 0 0 0 0 0 0 0 0 0 127 0" result="hardAlpha"/>
<feOffset dy="4"/>
<feGaussianBlur stdDeviation="20"/>
<feComposite in2="hardAlpha" operator="out"/>
<feColorMatrix type="matrix" values="0 0 0 0 0.764706 0 0 0 0 0.764706 0 0 0 0 0.764706 0 0 0 0.2 0"/>
<feBlend mode="normal" in2="BackgroundImageFix" result="effect1_dropShadow_1221_581"/>
<feBlend mode="normal" in="SourceGraphic" in2="effect1_dropShadow_1221_581" result="shape"/>
</filter>
<filter id="filter3_d_1221_581" x="170" y="175" width="150" height="161" filterUnits="userSpaceOnUse" color-interpolation-filters="sRGB">
<feFlood flood-opacity="0" result="BackgroundImageFix"/>
<feColorMatrix in="SourceAlpha" type="matrix" values="0 0 0 0 0 0 0 0 0 0 0 0 0 0 0 0 0 0 127 0" result="hardAlpha"/>
<feOffset dy="16"/>
<feGaussianBlur stdDeviation="20"/>
<feComposite in2="hardAlpha" operator="out"/>
<feColorMatrix type="matrix" values="0 0 0 0 0.764706 0 0 0 0 0.764706 0 0 0 0 0.764706 0 0 0 0.2 0"/>
<feBlend mode="normal" in2="BackgroundImageFix" result="effect1_dropShadow_1221_581"/>
<feBlend mode="normal" in="SourceGraphic" in2="effect1_dropShadow_1221_581" result="shape"/>
</filter>
<filter id="filter4_d_1221_581" x="112.005" y="95" width="225.995" height="260" filterUnits="userSpaceOnUse" color-interpolation-filters="sRGB">
<feFlood flood-opacity="0" result="BackgroundImageFix"/>
<feColorMatrix in="SourceAlpha" type="matrix" values="0 0 0 0 0 0 0 0 0 0 0 0 0 0 0 0 0 0 127 0" result="hardAlpha"/>
<feOffset dy="16"/>
<feGaussianBlur stdDeviation="20"/>
<feComposite in2="hardAlpha" operator="out"/>
<feColorMatrix type="matrix" values="0 0 0 0 0.764706 0 0 0 0 0.764706 0 0 0 0 0.764706 0 0 0 0.2 0"/>
<feBlend mode="normal" in2="BackgroundImageFix" result="effect1_dropShadow_1221_581"/>
<feBlend mode="normal" in="SourceGraphic" in2="effect1_dropShadow_1221_581" result="shape"/>
</filter>
<clipPath id="clip0_1221_581">
<rect x="44" y="94" width="280" height="178" rx="20" fill="white"/>
</clipPath>
<clipPath id="clip1_1221_581">
<rect width="8" height="11" fill="white" transform="translate(302 103)"/>
</clipPath>
</defs>
</svg>
