<svg width="512" height="512" viewBox="0 0 512 512" fill="none" xmlns="http://www.w3.org/2000/svg">
<g clip-path="url(#clip0_825_377)">
<g clip-path="url(#clip1_825_377)">
<path d="M256 287.464L245.989 294.615V147.307L201.654 164.469V80.0895L321.788 25.7432V237.408L317.497 247.419L313.207 254.57L304.626 261.721L288.894 268.872L274.592 276.023L263.151 283.173L256 287.464Z" fill="#D9EBF6"/>
<path d="M94.3911 358.972V218.852L188.782 183.062L187.352 318.927L94.3911 358.972Z" fill="#D9EBF6"/>
<path d="M88.6704 358.972V217.386L238.838 157.319V297.475L194.503 317.497V75.799L328.939 14.3018M328.939 14.3018L420.469 52.9163V245.989M328.939 14.3018V267.441" stroke="#2E4F97" stroke-width="14.3017"/>
<path d="M51.3316 479.425V391.578H78.2645C99.9954 391.578 110.861 399.088 110.861 414.106C110.861 419.224 109.309 423.545 106.204 427.069C103.1 430.593 98.5691 432.984 92.6119 434.243V434.495C99.0725 435.334 104.107 437.599 107.714 441.291C111.322 444.899 113.126 449.597 113.126 455.387C113.126 461.176 111.406 465.958 107.966 469.734C104.526 473.426 100.331 475.985 95.3807 477.411C90.5143 478.754 84.9348 479.425 78.642 479.425H51.3316ZM68.4478 404.667V428.579H73.1044C79.8167 428.579 84.8928 427.74 88.3329 426.062C91.7729 424.384 93.4929 421.196 93.4929 416.497C93.4929 412.051 91.8148 408.988 88.4587 407.31C85.1865 405.548 80.6557 404.667 74.8664 404.667H68.4478ZM68.4478 440.913V466.21H74.2371C81.5367 466.21 86.8646 465.203 90.2207 463.19C93.6607 461.176 95.3807 457.904 95.3807 453.373C95.3807 448.926 93.6188 445.738 90.0948 443.808C86.5709 441.878 80.9913 440.913 73.3561 440.913H68.4478ZM174.792 391.578L209.78 479.425H190.524L182.847 459.162H146.223L138.546 479.425H120.297L154.781 391.578H174.792ZM178.064 445.822L170.765 425.307C168.415 418.679 166.402 412.051 164.724 405.422H164.472C162.878 411.128 160.738 417.756 158.053 425.307L150.754 445.822H178.064ZM221.555 479.425V391.578H273.533V406.177H239.049V427.321H270.764V441.543H239.049V464.7H273.911V479.425H221.555ZM292.103 391.578H316.141C323.86 391.578 330.74 392.375 336.781 393.969C342.906 395.564 348.36 398.081 353.142 401.521C357.925 404.877 361.574 409.492 364.091 415.365C366.692 421.154 367.993 427.992 367.993 435.879C367.993 450.478 363.21 461.386 353.646 468.601C344.164 475.817 331.663 479.425 316.141 479.425H292.103V391.578ZM309.848 405.422V465.958H314.505C325.16 465.958 333.677 463.567 340.053 458.785C346.43 454.002 349.618 446.325 349.618 435.753C349.618 415.533 337.914 405.422 314.505 405.422H309.848ZM429.328 391.578L464.316 479.425H445.06L437.383 459.162H400.759L393.082 479.425H374.833L409.318 391.578H429.328ZM432.601 445.822L425.301 425.307C422.952 418.679 420.938 412.051 419.26 405.422H419.008C417.414 411.128 415.275 417.756 412.59 425.307L405.29 445.822H432.601Z" fill="#2E4F97"/>
<path d="M333.578 359.276C332.87 360.161 331.968 360.886 330.871 361.452C329.775 361.983 328.802 362.248 327.952 362.248C327.457 362.248 326.838 362.266 326.095 362.301C325.352 362.301 324.573 362.319 323.76 362.354C322.981 362.354 322.221 362.372 321.478 362.407C320.735 362.407 320.115 362.407 319.62 362.407C317.356 362.407 314.985 362.602 312.508 362.991C310.067 363.345 307.626 363.823 305.184 364.424C302.743 364.99 300.319 365.592 297.913 366.229C295.543 366.901 293.296 367.52 291.173 368.086C289.05 368.688 287.069 369.165 285.229 369.519C283.424 369.908 281.868 370.103 280.559 370.103C278.436 370.103 276.773 369.608 275.57 368.617C274.402 367.662 273.783 366.512 273.712 365.167C273.641 364.318 273.641 363.31 273.712 362.142C273.783 360.974 273.924 359.701 274.137 358.321C274.349 356.941 274.597 355.49 274.88 353.969C275.163 352.412 275.481 350.838 275.835 349.245C276.047 348.184 276.313 346.804 276.631 345.106C276.985 343.407 277.321 341.638 277.64 339.799C277.958 337.923 278.259 336.119 278.542 334.385C278.825 332.616 279.055 331.165 279.232 330.033C279.621 327.45 279.975 325.133 280.293 323.081C280.647 320.993 280.965 318.994 281.249 317.083C281.567 315.173 281.868 313.244 282.151 311.299C282.434 309.317 282.699 307.106 282.947 304.664C283.159 302.011 283.301 299.64 283.371 297.553C283.478 295.465 283.708 293.714 284.061 292.299C284.451 290.848 285.052 289.751 285.866 289.008C286.715 288.23 288.006 287.84 289.74 287.84C290.731 287.84 291.545 288.035 292.181 288.424C292.854 288.813 293.402 289.326 293.827 289.963C294.251 290.6 294.57 291.326 294.782 292.139C294.994 292.953 295.136 293.767 295.207 294.581C295.242 294.828 295.118 295.624 294.835 296.969C294.587 298.313 294.251 299.994 293.827 302.011C293.402 303.992 292.924 306.204 292.394 308.645C291.863 311.086 291.332 313.563 290.802 316.075C290.306 318.587 289.829 321.028 289.369 323.399C288.944 325.734 288.608 327.786 288.36 329.555C288.148 331.112 287.883 332.793 287.564 334.597C287.281 336.366 286.98 338.171 286.662 340.011C286.343 341.815 286.025 343.62 285.707 345.424C285.388 347.229 285.105 348.927 284.857 350.519C284.61 352.076 284.415 353.491 284.274 354.765C284.168 356.003 284.15 356.994 284.221 357.737C284.291 358.374 284.557 358.958 285.017 359.488C285.477 360.019 286.096 360.285 286.874 360.285C287.723 360.285 288.785 360.178 290.059 359.966C291.368 359.718 292.748 359.418 294.198 359.064C295.684 358.675 297.188 358.268 298.709 357.843C300.231 357.383 301.681 356.959 303.061 356.569C303.38 356.463 303.981 356.322 304.866 356.145C305.786 355.933 306.83 355.703 307.997 355.455C309.2 355.207 310.474 354.96 311.818 354.712C313.163 354.464 314.419 354.234 315.587 354.022C316.789 353.81 317.851 353.633 318.771 353.491C319.691 353.35 320.328 353.279 320.681 353.279C321.141 353.279 321.778 353.226 322.592 353.12C323.441 353.014 324.397 352.925 325.458 352.854C326.519 352.784 327.669 352.748 328.908 352.748C330.146 352.748 331.384 352.872 332.623 353.12C333.26 353.261 333.737 353.58 334.056 354.075C334.374 354.535 334.551 355.083 334.587 355.72C334.622 356.357 334.551 356.994 334.374 357.631C334.197 358.268 333.932 358.816 333.578 359.276ZM374.179 323.824C374.179 323.47 374.037 323.081 373.754 322.656C373.506 322.196 373.17 321.772 372.746 321.382C372.357 320.958 371.914 320.604 371.419 320.321C370.924 320.038 370.464 319.896 370.039 319.896C368.942 319.896 367.916 320.073 366.961 320.427C366.041 320.781 365.174 321.241 364.36 321.807C363.546 322.338 362.786 322.957 362.078 323.664C361.406 324.372 360.804 325.08 360.274 325.787C359 327.415 357.691 329.414 356.346 331.785C355.037 334.12 353.834 336.579 352.737 339.162C351.676 341.744 350.791 344.292 350.084 346.804C349.411 349.316 349.075 351.545 349.075 353.491C349.075 354.482 349.518 355.331 350.402 356.039C351.287 356.746 352.472 357.1 353.958 357.1C354.807 357.1 355.816 356.729 356.983 355.986C358.186 355.207 359.424 354.199 360.698 352.961C362.007 351.687 363.281 350.254 364.519 348.662C365.793 347.069 366.908 345.424 367.863 343.726C369.668 340.542 371.171 337.339 372.374 334.12C373.577 330.865 374.179 327.433 374.179 323.824ZM417.327 321.382C417.327 321.701 417.061 322.585 416.531 324.036C416.035 325.487 415.292 327.256 414.302 329.343C413.346 331.395 412.161 333.66 410.746 336.136C409.366 338.613 407.809 341.019 406.075 343.354C403.952 346.256 401.847 348.785 399.76 350.944C397.672 353.102 395.673 354.907 393.762 356.357C391.887 357.772 390.154 358.852 388.561 359.595C386.969 360.302 385.589 360.656 384.422 360.656C382.476 360.656 380.901 360.391 379.698 359.86C378.495 359.294 377.505 358.462 376.726 357.366C375.948 356.233 375.311 354.818 374.816 353.12C374.356 351.386 373.896 349.352 373.436 347.016H372.693C371.207 349.281 369.579 351.528 367.81 353.757C366.076 355.95 364.254 357.932 362.343 359.701C360.468 361.434 358.522 362.85 356.506 363.947C354.524 365.043 352.56 365.592 350.614 365.592C349.588 365.592 348.509 365.415 347.377 365.061C346.245 364.672 345.201 364.07 344.246 363.257C343.29 362.443 342.494 361.417 341.857 360.178C341.221 358.905 340.902 357.383 340.902 355.614C340.902 354.057 341.097 352.288 341.486 350.307C341.875 348.29 342.406 346.203 343.078 344.044C343.75 341.851 344.511 339.657 345.36 337.463C346.245 335.234 347.165 333.129 348.12 331.148C349.111 329.166 350.101 327.38 351.092 325.787C352.083 324.16 353.038 322.868 353.958 321.913C355.019 320.781 356.258 319.631 357.673 318.463C359.124 317.296 360.716 316.234 362.45 315.279C364.183 314.324 366.041 313.545 368.022 312.944C370.004 312.307 372.091 311.988 374.285 311.988C376.054 311.988 377.381 312.572 378.265 313.74C379.15 314.872 379.769 316.606 380.123 318.941C380.158 319.153 380.282 319.401 380.494 319.684C380.742 319.967 380.99 320.285 381.237 320.639C381.52 320.993 381.768 321.365 381.98 321.754C382.193 322.108 382.299 322.479 382.299 322.868C382.299 323.434 382.175 324.142 381.927 324.991C381.68 325.805 381.397 326.743 381.078 327.804C380.795 328.83 380.53 329.962 380.282 331.201C380.034 332.404 379.911 333.677 379.911 335.022C379.911 336.862 379.928 338.826 379.964 340.913C379.999 343.001 380.194 344.929 380.547 346.698C380.937 348.432 381.556 349.882 382.405 351.05C383.289 352.217 384.563 352.801 386.226 352.801C387.075 352.801 388.084 352.447 389.251 351.74C390.454 351.032 391.763 350.042 393.179 348.768C394.629 347.494 396.133 345.973 397.69 344.204C399.282 342.434 400.91 340.488 402.573 338.366C404.483 335.924 406.146 333.518 407.561 331.148C408.977 328.742 410.215 326.619 411.276 324.779C412.338 322.904 413.24 321.4 413.983 320.268C414.726 319.1 415.363 318.516 415.894 318.516H415.947C416.548 318.552 416.938 318.729 417.114 319.047C417.291 319.366 417.38 319.772 417.38 320.268C417.38 320.445 417.38 320.622 417.38 320.799C417.38 320.975 417.362 321.17 417.327 321.382ZM454.424 334.279C454.424 337.817 453.823 341.32 452.62 344.787C451.452 348.219 449.878 351.51 447.897 354.659C445.915 357.772 443.615 360.674 440.997 363.363C438.414 366.052 435.69 368.405 432.824 370.421C429.958 372.474 427.057 374.119 424.12 375.357C421.183 376.631 418.406 377.392 415.788 377.639C415.08 377.604 414.372 377.445 413.665 377.162C412.992 376.879 412.356 376.542 411.754 376.153C411.188 375.764 410.728 375.322 410.374 374.826C410.02 374.366 409.843 373.942 409.843 373.553C409.843 372.916 410.056 372.297 410.48 371.695C410.905 371.129 411.577 370.598 412.497 370.103C414.478 370.103 416.531 369.82 418.654 369.254C420.812 368.688 422.97 367.874 425.128 366.812C427.287 365.751 429.392 364.477 431.444 362.991C433.532 361.47 435.478 359.771 437.282 357.896C438.803 356.339 440.148 354.659 441.316 352.854C442.519 351.015 443.527 349.157 444.341 347.282C445.154 345.407 445.774 343.549 446.198 341.709C446.623 339.834 446.835 338.082 446.835 336.455C446.835 335.712 446.747 335.022 446.57 334.385C446.428 333.748 446.216 333.217 445.933 332.793C445.685 332.333 445.402 331.979 445.084 331.731C444.765 331.484 444.447 331.36 444.128 331.36C442.289 331.36 440.307 331.891 438.184 332.952C436.061 333.978 433.921 335.358 431.762 337.092C429.604 338.826 427.499 340.825 425.447 343.089C423.395 345.353 421.502 347.724 419.768 350.201C418.07 352.677 416.584 355.172 415.31 357.684C414.036 360.161 413.134 362.478 412.603 364.636C412.426 365.45 412.126 366.299 411.701 367.184C411.312 368.069 410.852 368.865 410.321 369.572C409.79 370.28 409.224 370.828 408.623 371.217C408.057 371.642 407.508 371.766 406.978 371.589C405.456 371.023 404.695 369.466 404.695 366.919C404.695 366.317 404.855 365.256 405.173 363.734C405.527 362.177 406.005 360.302 406.606 358.109C407.314 355.349 407.915 352.837 408.411 350.572C408.941 348.272 409.419 346.026 409.843 343.832C410.303 341.603 410.746 339.339 411.17 337.039C411.595 334.704 412.073 332.103 412.603 329.237C413.134 326.513 413.647 323.947 414.142 321.542C414.673 319.1 415.239 316.712 415.841 314.377C416.442 312.006 417.097 309.653 417.804 307.318C418.512 304.947 419.326 302.488 420.246 299.941C420.989 297.818 421.749 296.031 422.528 294.581C423.342 293.095 424.138 291.892 424.916 290.972C425.695 290.016 426.455 289.326 427.198 288.902C427.941 288.477 428.631 288.265 429.268 288.265C429.693 288.265 430.117 288.336 430.542 288.477C431.002 288.583 431.426 288.813 431.816 289.167C432.205 289.486 432.523 289.946 432.771 290.547C433.019 291.113 433.142 291.839 433.142 292.723C433.142 293.926 433.019 295.129 432.771 296.332C432.523 297.535 432.205 298.738 431.816 299.941C431.462 301.109 431.055 302.258 430.595 303.391C430.135 304.523 429.693 305.62 429.268 306.681C428.773 307.92 428.171 309.299 427.464 310.821C426.756 312.307 426.048 313.828 425.341 315.385C424.633 316.907 423.961 318.375 423.324 319.79C422.722 321.205 422.245 322.426 421.891 323.452C421.749 323.841 421.537 324.567 421.254 325.628C420.971 326.654 420.653 327.875 420.299 329.29C419.98 330.705 419.627 332.244 419.237 333.907C418.848 335.535 418.477 337.145 418.123 338.737C417.804 340.294 417.504 341.762 417.221 343.142C416.973 344.487 416.796 345.583 416.69 346.433C417.751 344.734 419.007 342.983 420.458 341.178C421.944 339.339 423.536 337.552 425.235 335.818C426.933 334.084 428.702 332.457 430.542 330.935C432.382 329.379 434.204 328.016 436.008 326.849C437.848 325.681 439.617 324.761 441.316 324.089C443.014 323.417 444.571 323.081 445.986 323.081C446.517 323.081 447.065 323.081 447.631 323.081C448.197 323.081 448.728 323.134 449.223 323.24C449.719 323.346 450.161 323.523 450.55 323.771C450.975 323.983 451.329 324.301 451.612 324.726C452.036 325.363 452.425 326.106 452.779 326.955C453.133 327.769 453.434 328.618 453.681 329.502C453.929 330.352 454.106 331.201 454.212 332.05C454.354 332.864 454.424 333.607 454.424 334.279Z" fill="#F47806"/>
</g>
</g>
<defs>
<clipPath id="clip0_825_377">
<rect width="512" height="512" fill="white"/>
</clipPath>
<clipPath id="clip1_825_377">
<rect width="512" height="512" fill="white"/>
</clipPath>
</defs>
</svg>
