<svg width="330" height="315" viewBox="0 0 330 315" fill="none" xmlns="http://www.w3.org/2000/svg">
<path d="M166.75 183.244L160.229 187.902V91.951L131.351 103.13V48.1675L209.602 12.7681V150.64L206.807 157.161L204.013 161.818L198.423 166.476L188.176 171.134L178.86 175.792L171.408 180.45L166.75 183.244Z" fill="white"/>
<path d="M61.4832 229.823V138.553L122.966 115.24L122.035 203.739L61.4832 229.823Z" fill="white"/>
<path d="M57.757 229.823V137.598L155.571 98.4721V189.765L126.693 202.807V45.3729L214.26 5.31567M214.26 5.31567L273.88 30.4679V156.229M214.26 5.31567V170.203" stroke="white" stroke-width="9.31564"/>
<path d="M33.4357 307.796V250.575H50.9789C65.1337 250.575 72.2111 255.467 72.2111 265.249C72.2111 268.583 71.2001 271.398 69.178 273.693C67.1558 275.989 64.2046 277.546 60.3244 278.366V278.53C64.5326 279.076 67.8117 280.552 70.1617 282.957C72.5117 285.307 73.6867 288.367 73.6867 292.138C73.6867 295.909 72.5664 299.024 70.3256 301.484C68.0849 303.888 65.3523 305.555 62.1279 306.484C58.9581 307.359 55.3237 307.796 51.2249 307.796H33.4357ZM44.5847 259.101V274.677H47.6178C51.99 274.677 55.2964 274.13 57.5371 273.037C59.7779 271.944 60.8982 269.868 60.8982 266.807C60.8982 263.911 59.8052 261.916 57.6191 260.823C55.4877 259.675 52.5365 259.101 48.7655 259.101H44.5847ZM44.5847 282.711V299.188H48.3556C53.1103 299.188 56.5807 298.532 58.7668 297.221C61.0075 295.909 62.1279 293.778 62.1279 290.827C62.1279 287.93 60.9802 285.853 58.6848 284.596C56.3894 283.339 52.7551 282.711 47.7818 282.711H44.5847ZM113.854 250.575L136.644 307.796H124.101L119.1 294.597H95.2449L90.2443 307.796H78.3575L100.819 250.575H113.854ZM115.985 285.908L111.231 272.546C109.7 268.228 108.389 263.911 107.296 259.593H107.132C106.093 263.309 104.7 267.627 102.951 272.546L98.1961 285.908H115.985ZM144.314 307.796V250.575H178.17V260.085H155.709V273.857H176.367V283.121H155.709V298.205H178.416V307.796H144.314ZM190.266 250.575H205.924C210.952 250.575 215.433 251.095 219.368 252.133C223.358 253.171 226.91 254.811 230.025 257.052C233.14 259.238 235.518 262.244 237.157 266.069C238.851 269.84 239.699 274.294 239.699 279.432C239.699 288.941 236.583 296.046 230.353 300.746C224.177 305.446 216.034 307.796 205.924 307.796H190.266V250.575ZM201.825 259.593V299.024H204.858C211.799 299.024 217.346 297.467 221.499 294.352C225.653 291.236 227.73 286.236 227.73 279.35C227.73 266.179 220.106 259.593 204.858 259.593H201.825ZM279.65 250.575L302.44 307.796H289.898L284.897 294.597H261.042L256.041 307.796H244.154L266.616 250.575H279.65ZM281.782 285.908L277.027 272.546C275.497 268.228 274.185 263.911 273.092 259.593H272.928C271.89 263.309 270.496 267.627 268.747 272.546L263.993 285.908H281.782Z" fill="white"/>
<path d="M217.282 229.747C216.821 230.323 216.233 230.795 215.519 231.164C214.804 231.51 214.171 231.682 213.618 231.682C213.295 231.682 212.892 231.694 212.408 231.717C211.924 231.717 211.417 231.729 210.887 231.752C210.379 231.752 209.884 231.763 209.4 231.786C208.916 231.786 208.513 231.786 208.19 231.786C206.715 231.786 205.171 231.913 203.558 232.166C201.968 232.397 200.377 232.708 198.787 233.1C197.197 233.469 195.618 233.86 194.051 234.275C192.507 234.713 191.043 235.116 189.661 235.485C188.278 235.877 186.987 236.188 185.789 236.419C184.613 236.672 183.599 236.799 182.747 236.799C181.364 236.799 180.281 236.476 179.497 235.831C178.737 235.209 178.333 234.46 178.287 233.584C178.241 233.031 178.241 232.374 178.287 231.613C178.333 230.853 178.425 230.023 178.564 229.124C178.702 228.225 178.863 227.281 179.048 226.29C179.232 225.276 179.44 224.25 179.67 223.213C179.808 222.521 179.981 221.623 180.189 220.516C180.419 219.41 180.638 218.258 180.845 217.059C181.053 215.838 181.249 214.663 181.433 213.533C181.617 212.381 181.767 211.436 181.882 210.699C182.136 209.016 182.366 207.507 182.574 206.17C182.804 204.81 183.012 203.508 183.196 202.264C183.404 201.019 183.599 199.763 183.784 198.495C183.968 197.205 184.141 195.764 184.302 194.174C184.441 192.446 184.533 190.902 184.579 189.542C184.648 188.182 184.798 187.041 185.028 186.12C185.282 185.175 185.674 184.46 186.204 183.976C186.757 183.469 187.598 183.216 188.727 183.216C189.373 183.216 189.903 183.342 190.317 183.596C190.755 183.849 191.113 184.184 191.389 184.598C191.666 185.013 191.873 185.486 192.011 186.016C192.15 186.546 192.242 187.076 192.288 187.606C192.311 187.767 192.23 188.286 192.046 189.162C191.885 190.037 191.666 191.132 191.389 192.446C191.113 193.736 190.801 195.177 190.456 196.767C190.11 198.357 189.764 199.97 189.419 201.607C189.096 203.243 188.785 204.833 188.485 206.377C188.209 207.898 187.99 209.235 187.828 210.387C187.69 211.402 187.517 212.496 187.31 213.672C187.126 214.824 186.93 215.999 186.722 217.198C186.515 218.373 186.307 219.548 186.1 220.724C185.893 221.899 185.708 223.005 185.547 224.043C185.386 225.057 185.259 225.978 185.167 226.808C185.097 227.615 185.086 228.26 185.132 228.744C185.178 229.159 185.351 229.539 185.651 229.885C185.95 230.231 186.353 230.403 186.861 230.403C187.414 230.403 188.105 230.334 188.935 230.196C189.787 230.035 190.686 229.839 191.631 229.608C192.599 229.355 193.579 229.09 194.57 228.813C195.561 228.514 196.505 228.237 197.404 227.983C197.612 227.914 198.004 227.822 198.58 227.707C199.179 227.569 199.859 227.419 200.619 227.258C201.403 227.096 202.233 226.935 203.108 226.774C203.984 226.612 204.802 226.462 205.563 226.324C206.346 226.186 207.038 226.071 207.637 225.978C208.236 225.886 208.651 225.84 208.881 225.84C209.181 225.84 209.596 225.806 210.126 225.736C210.679 225.667 211.301 225.61 211.993 225.564C212.684 225.518 213.433 225.494 214.24 225.494C215.046 225.494 215.853 225.575 216.66 225.736C217.074 225.829 217.386 226.036 217.593 226.359C217.8 226.658 217.916 227.016 217.939 227.43C217.962 227.845 217.916 228.26 217.8 228.675C217.685 229.09 217.512 229.447 217.282 229.747ZM243.728 206.654C243.728 206.423 243.636 206.17 243.451 205.893C243.29 205.594 243.071 205.317 242.794 205.064C242.541 204.787 242.253 204.557 241.93 204.372C241.608 204.188 241.308 204.096 241.031 204.096C240.317 204.096 239.649 204.211 239.026 204.441C238.427 204.672 237.862 204.972 237.332 205.34C236.802 205.686 236.307 206.089 235.846 206.55C235.408 207.011 235.016 207.472 234.671 207.933C233.841 208.993 232.988 210.295 232.112 211.839C231.26 213.36 230.476 214.962 229.762 216.645C229.07 218.327 228.494 219.986 228.033 221.623C227.595 223.259 227.376 224.711 227.376 225.978C227.376 226.624 227.664 227.177 228.241 227.638C228.817 228.099 229.589 228.329 230.557 228.329C231.11 228.329 231.767 228.087 232.527 227.603C233.311 227.096 234.117 226.439 234.947 225.633C235.8 224.803 236.629 223.87 237.436 222.833C238.266 221.796 238.992 220.724 239.614 219.618C240.789 217.543 241.769 215.458 242.552 213.36C243.336 211.24 243.728 209.005 243.728 206.654ZM271.833 205.064C271.833 205.271 271.66 205.847 271.314 206.792C270.992 207.737 270.508 208.889 269.863 210.249C269.24 211.586 268.468 213.061 267.546 214.674C266.648 216.287 265.633 217.855 264.504 219.376C263.121 221.265 261.75 222.913 260.39 224.319C259.031 225.725 257.729 226.9 256.484 227.845C255.263 228.767 254.133 229.47 253.096 229.954C252.059 230.415 251.16 230.645 250.4 230.645C249.132 230.645 248.107 230.473 247.323 230.127C246.539 229.758 245.894 229.216 245.387 228.502C244.88 227.765 244.465 226.843 244.143 225.736C243.843 224.607 243.543 223.282 243.244 221.761H242.76C241.792 223.236 240.732 224.699 239.579 226.151C238.45 227.58 237.263 228.871 236.019 230.023C234.797 231.152 233.53 232.074 232.216 232.789C230.925 233.503 229.646 233.86 228.379 233.86C227.71 233.86 227.008 233.745 226.27 233.515C225.533 233.261 224.853 232.869 224.23 232.339C223.608 231.809 223.09 231.141 222.675 230.334C222.26 229.505 222.053 228.514 222.053 227.361C222.053 226.347 222.179 225.195 222.433 223.904C222.686 222.591 223.032 221.231 223.47 219.825C223.908 218.396 224.403 216.967 224.956 215.538C225.533 214.086 226.132 212.715 226.754 211.425C227.399 210.134 228.045 208.97 228.69 207.933C229.335 206.873 229.957 206.032 230.557 205.409C231.248 204.672 232.055 203.923 232.977 203.162C233.921 202.402 234.959 201.71 236.088 201.088C237.217 200.466 238.427 199.959 239.718 199.567C241.008 199.152 242.368 198.945 243.797 198.945C244.949 198.945 245.813 199.325 246.39 200.086C246.966 200.823 247.369 201.952 247.6 203.474C247.623 203.612 247.703 203.773 247.842 203.958C248.003 204.142 248.164 204.349 248.326 204.58C248.51 204.81 248.671 205.052 248.81 205.306C248.948 205.536 249.017 205.778 249.017 206.032C249.017 206.4 248.936 206.861 248.775 207.414C248.614 207.945 248.429 208.555 248.222 209.247C248.037 209.915 247.865 210.653 247.703 211.459C247.542 212.243 247.461 213.072 247.461 213.948C247.461 215.147 247.473 216.426 247.496 217.785C247.519 219.145 247.646 220.401 247.876 221.554C248.13 222.683 248.533 223.628 249.086 224.388C249.662 225.149 250.492 225.529 251.575 225.529C252.128 225.529 252.785 225.299 253.546 224.838C254.329 224.377 255.182 223.731 256.104 222.902C257.049 222.072 258.028 221.081 259.042 219.929C260.079 218.776 261.139 217.509 262.223 216.126C263.467 214.536 264.55 212.969 265.472 211.425C266.394 209.857 267.201 208.475 267.892 207.276C268.583 206.055 269.171 205.075 269.655 204.338C270.139 203.577 270.554 203.197 270.9 203.197H270.934C271.326 203.22 271.579 203.335 271.695 203.543C271.81 203.75 271.868 204.015 271.868 204.338C271.868 204.453 271.868 204.568 271.868 204.683C271.868 204.799 271.856 204.925 271.833 205.064ZM295.997 213.464C295.997 215.769 295.605 218.05 294.822 220.309C294.061 222.545 293.036 224.688 291.745 226.739C290.455 228.767 288.957 230.657 287.251 232.408C285.569 234.16 283.794 235.693 281.927 237.006C280.061 238.343 278.171 239.415 276.258 240.221C274.345 241.051 272.536 241.546 270.83 241.708C270.37 241.685 269.909 241.581 269.448 241.397C269.01 241.212 268.595 240.993 268.203 240.74C267.834 240.486 267.535 240.198 267.304 239.875C267.074 239.576 266.959 239.299 266.959 239.046C266.959 238.631 267.097 238.228 267.374 237.836C267.65 237.467 268.088 237.121 268.687 236.799C269.978 236.799 271.314 236.614 272.697 236.246C274.103 235.877 275.509 235.347 276.915 234.655C278.321 233.964 279.692 233.134 281.029 232.166C282.388 231.175 283.656 230.069 284.831 228.848C285.822 227.834 286.698 226.739 287.459 225.564C288.242 224.365 288.899 223.155 289.429 221.934C289.959 220.712 290.362 219.502 290.639 218.304C290.916 217.082 291.054 215.942 291.054 214.882C291.054 214.398 290.996 213.948 290.881 213.533C290.789 213.118 290.65 212.773 290.466 212.496C290.305 212.197 290.12 211.966 289.913 211.805C289.706 211.644 289.498 211.563 289.291 211.563C288.092 211.563 286.802 211.909 285.419 212.6C284.036 213.268 282.642 214.167 281.236 215.296C279.83 216.426 278.459 217.728 277.122 219.203C275.785 220.678 274.552 222.222 273.423 223.835C272.317 225.448 271.349 227.073 270.519 228.709C269.69 230.323 269.102 231.832 268.756 233.238C268.641 233.768 268.445 234.321 268.169 234.897C267.915 235.474 267.615 235.992 267.27 236.453C266.924 236.914 266.555 237.271 266.164 237.525C265.795 237.801 265.438 237.882 265.092 237.767C264.101 237.398 263.605 236.384 263.605 234.725C263.605 234.333 263.709 233.641 263.917 232.65C264.147 231.636 264.458 230.415 264.85 228.986C265.311 227.188 265.703 225.552 266.025 224.077C266.371 222.579 266.682 221.116 266.959 219.687C267.258 218.235 267.546 216.76 267.823 215.262C268.099 213.741 268.411 212.047 268.756 210.18C269.102 208.405 269.436 206.735 269.759 205.167C270.105 203.577 270.473 202.022 270.865 200.501C271.257 198.956 271.683 197.424 272.144 195.903C272.605 194.359 273.135 192.757 273.734 191.098C274.218 189.715 274.714 188.551 275.221 187.606C275.751 186.638 276.269 185.854 276.776 185.255C277.284 184.633 277.779 184.184 278.263 183.907C278.747 183.63 279.196 183.492 279.611 183.492C279.888 183.492 280.164 183.538 280.441 183.63C280.74 183.7 281.017 183.849 281.271 184.08C281.524 184.287 281.731 184.587 281.893 184.979C282.054 185.347 282.135 185.82 282.135 186.396C282.135 187.18 282.054 187.963 281.893 188.747C281.731 189.53 281.524 190.314 281.271 191.098C281.04 191.858 280.775 192.607 280.475 193.345C280.176 194.082 279.888 194.797 279.611 195.488C279.289 196.295 278.897 197.193 278.436 198.184C277.975 199.152 277.514 200.143 277.053 201.157C276.592 202.148 276.154 203.105 275.739 204.027C275.348 204.949 275.036 205.744 274.806 206.412C274.714 206.665 274.576 207.138 274.391 207.829C274.207 208.498 273.999 209.293 273.769 210.215C273.561 211.136 273.331 212.139 273.078 213.222C272.824 214.282 272.582 215.331 272.352 216.368C272.144 217.382 271.948 218.339 271.764 219.237C271.603 220.113 271.487 220.828 271.418 221.381C272.11 220.274 272.928 219.134 273.873 217.958C274.841 216.76 275.878 215.596 276.984 214.467C278.09 213.337 279.242 212.277 280.441 211.286C281.639 210.272 282.826 209.385 284.002 208.624C285.2 207.864 286.352 207.265 287.459 206.827C288.565 206.389 289.579 206.17 290.501 206.17C290.846 206.17 291.204 206.17 291.572 206.17C291.941 206.17 292.287 206.205 292.609 206.274C292.932 206.343 293.22 206.458 293.474 206.619C293.75 206.758 293.981 206.965 294.165 207.242C294.442 207.656 294.695 208.14 294.926 208.694C295.156 209.224 295.352 209.777 295.513 210.353C295.675 210.906 295.79 211.459 295.859 212.012C295.951 212.542 295.997 213.026 295.997 213.464Z" fill="white"/>
</svg>
